<svg width="223" height="74" viewBox="0 0 223 74" fill="none" xmlns="http://www.w3.org/2000/svg">
<path d="M65.0732 29.168C64.3774 30.0469 63.9746 31.3652 63.9746 32.9399C63.9746 33.9287 64.2676 34.8442 64.8535 35.5034C65.4395 36.1992 66.5015 36.8218 68.2593 37.0781C70.5664 37.3711 73.02 37.9937 74.8877 39.4951C76.9019 41.1431 77.9639 43.5601 77.9639 46.7827C77.9639 52.459 73.2764 57 68.0029 57C64.4873 57 61.6309 55.4619 59.6533 52.8252C58.9209 51.9097 59.104 50.5913 60.0195 49.8955C60.9351 49.1997 62.2534 49.3828 62.9492 50.2983C64.231 51.9829 65.8423 52.8252 68.0029 52.8252C70.9326 52.8252 73.7891 50.1885 73.7891 46.7827C73.7891 44.5488 73.0933 43.4136 72.251 42.7544C71.2988 41.9487 69.7974 41.4727 67.71 41.2163C65.1465 40.8501 63.0957 39.8247 61.7407 38.25C60.3491 36.7119 59.7998 34.771 59.7998 32.9399C59.7998 30.6694 60.4224 28.3623 61.7773 26.6045C63.2056 24.8101 65.3296 23.6748 68.0029 23.6748C71.9214 23.6748 75.2173 26.0918 76.0229 29.3145C76.2793 30.4131 75.6201 31.5483 74.4849 31.8047C73.3496 32.0977 72.251 31.4019 71.958 30.3032C71.7017 29.2412 70.3467 27.8496 68.0029 27.8496C66.6479 27.8496 65.6958 28.3623 65.0732 29.168ZM102.17 25.0664C105.1 26.6411 107.151 29.4976 107.151 33.5259C107.151 35.833 106.125 37.6641 104.514 38.9824C102.976 40.2275 100.962 41.0332 98.8379 41.5459C95.2124 42.4248 90.708 42.6445 86.3867 42.6812C86.6431 45.1714 87.3389 47.4785 88.5474 49.2363C89.9756 51.397 92.1729 52.8252 95.542 52.8252C99.6802 52.8252 101.768 51.0674 102.537 50.335C103.379 49.5293 104.697 49.5293 105.503 50.335C106.309 51.1406 106.309 52.459 105.466 53.3013C104.148 54.583 101.035 57 95.542 57C90.708 57 87.229 54.8027 85.0684 51.5435C82.981 48.394 82.1387 44.3657 82.1387 40.6304C82.1387 35.4668 83.2373 31.6216 85.1782 28.8384C87.1558 26.0552 89.8657 24.5903 92.6489 24.0044C95.8716 23.3452 99.3872 23.6016 102.17 25.0664ZM86.3867 38.5063C90.5981 38.4697 94.6997 38.25 97.8491 37.481C99.7168 37.0415 101.035 36.4556 101.877 35.7598C102.61 35.1372 102.976 34.478 102.976 33.5259C102.976 31.1089 101.877 29.644 100.229 28.7651C98.4717 27.8496 96.0181 27.5933 93.4912 28.106C91.5869 28.4722 89.8657 29.4243 88.584 31.2554C87.4854 32.7935 86.6431 35.1006 86.3867 38.5063ZM113.376 22.1001C114.512 22.1001 115.464 23.0522 115.464 24.1875V52.8252H123.777C124.949 52.8252 125.864 53.7773 125.864 54.9126C125.864 56.0845 124.949 57 123.777 57H113.376C112.827 57 112.278 56.7803 111.912 56.3774C111.509 56.0112 111.289 55.4619 111.289 54.9126V24.1875C111.289 23.0522 112.205 22.1001 113.376 22.1001ZM129.636 22.6128C129.636 21.4775 130.552 20.5254 131.724 20.5254H132.749C133.921 20.5254 134.836 21.4775 134.836 22.6128V23.6748C134.836 24.8101 133.921 25.7622 132.749 25.7622H131.724C130.552 25.7622 129.636 24.8101 129.636 23.6748V22.6128ZM132.236 28.875C133.408 28.875 134.324 29.7905 134.324 30.9624V54.9126C134.324 56.0845 133.408 57 132.236 57C131.101 57 130.149 56.0845 130.149 54.9126V30.9624C130.149 29.7905 131.101 28.875 132.236 28.875ZM142.161 25.7622C143.955 24.3706 146.189 23.6748 148.386 23.6748C153.623 23.6748 158.823 27.6299 158.823 34.5879H156.736C158.823 34.5879 158.823 34.5879 158.823 34.5879V54.9126C158.823 56.0845 157.871 57 156.736 57C155.601 57 154.648 56.0845 154.648 54.9126V34.5879C154.648 34.5879 154.648 34.5879 156.736 34.5879H154.648C154.648 30.1201 151.499 27.8496 148.386 27.8496C145.31 27.8496 142.161 30.1201 142.161 34.5879V54.9126C142.161 54.9126 142.161 54.9126 140.073 54.9126H142.161C142.161 56.0845 141.208 57 140.073 57C138.901 57 137.986 56.0845 137.986 54.9126H140.073C137.986 54.9126 137.986 54.9126 137.986 54.9126V25.7622C137.986 24.5903 138.901 23.6748 140.073 23.6748C141.208 23.6748 142.161 24.5903 142.161 25.7622ZM163.035 22.6128C163.035 21.4775 163.95 20.5254 165.122 20.5254H166.147C167.319 20.5254 168.235 21.4775 168.235 22.6128V23.6748C168.235 24.8101 167.319 25.7622 166.147 25.7622H165.122C163.95 25.7622 163.035 24.8101 163.035 23.6748V22.6128ZM165.635 28.875C166.807 28.875 167.722 29.7905 167.722 30.9624V54.9126C167.722 56.0845 166.807 57 165.635 57C164.5 57 163.547 56.0845 163.547 54.9126V30.9624C163.547 29.7905 164.5 28.875 165.635 28.875ZM178.013 22.6128C179.148 22.6128 180.063 23.5649 180.063 24.7002V30.5229H188.45C189.585 30.5229 190.537 31.4385 190.537 32.6104C190.537 33.7456 189.585 34.6611 188.45 34.6611H180.063V42.3882C180.063 46.3066 180.43 49.0166 181.199 50.7012C181.565 51.5068 182.004 51.9829 182.48 52.3125C182.957 52.6055 183.652 52.8252 184.678 52.8252C187.168 52.8252 188.596 51.6899 189.438 50.5181C189.878 49.8955 190.171 49.2729 190.354 48.7969C190.464 48.5771 190.5 48.3574 190.537 48.2476C190.574 48.1743 190.574 48.1377 190.574 48.1011C190.83 46.9658 191.929 46.27 193.027 46.4897C194.163 46.7461 194.895 47.8447 194.639 48.98L192.625 48.5405C194.639 48.98 194.639 48.98 194.639 48.98V49.0166C194.639 49.0532 194.639 49.0898 194.639 49.0898C194.602 49.1631 194.565 49.2729 194.565 49.3828C194.492 49.6025 194.382 49.9321 194.236 50.2983C193.979 50.9941 193.54 51.9829 192.808 52.9717C191.343 54.9858 188.779 57 184.678 57C183.03 57 181.528 56.6338 180.247 55.8281C178.965 54.9858 178.049 53.814 177.427 52.459C176.218 49.8589 175.925 46.3433 175.925 42.3882V34.6611H173.875C172.703 34.6611 171.787 33.7456 171.787 32.6104C171.787 31.4385 172.703 30.5229 173.875 30.5229H175.925V24.7002C175.925 23.5649 176.841 22.6128 178.013 22.6128ZM200.315 23.7847C201.414 23.4185 202.585 24.0044 202.952 25.103C203.025 25.3594 203.135 25.6523 203.208 25.9453C204.966 31.1455 206.504 35.8696 210.496 40.2642C213.718 34.6245 214.854 31.0723 216.685 25.1396C217.014 24.041 218.186 23.4185 219.285 23.748C220.383 24.1143 221.006 25.2495 220.676 26.3481C218.552 33.1963 217.271 37.2612 212.693 44.7319C208.921 50.9575 208.628 51.3604 204.307 57.2197C203.611 58.1353 202.292 58.3184 201.377 57.6226C200.461 56.9268 200.278 55.645 200.938 54.7295C204.856 49.4561 205.369 48.7603 208.298 43.9995C203.025 38.6162 201.121 32.8667 199.326 27.3735C199.216 27.0439 199.106 26.751 198.997 26.4214C198.63 25.3228 199.216 24.1509 200.315 23.7847Z" fill="white"/>
<path d="M23 5L4 37.5L23 70L42 37.5L23 5Z" stroke="white" stroke-width="5" stroke-linejoin="round"/>
<path d="M23 23L14 37.5H32L23 52" stroke="white" stroke-width="5" stroke-linecap="round" stroke-linejoin="round"/>
</svg>
