<svg width="1024" height="1024" viewBox="0 0 1024 1024" fill="none" xmlns="http://www.w3.org/2000/svg">
<g clip-path="url(#clip0_43_20424)">
<rect width="1024" height="1024" fill="#0F0A29"/>
<rect y="512" width="512" height="128" fill="white"/>
<path d="M960 348.223L913.889 256L960 163.777L1006.11 256L960 348.223Z" stroke="#AF9CFF" stroke-width="32"/>
<path d="M832 348.223L785.889 256L832 163.777L878.111 256L832 348.223Z" stroke="#AF9CFF" stroke-width="32"/>
<path d="M704 348.223L657.889 256L704 163.777L750.111 256L704 348.223Z" stroke="#AF9CFF" stroke-width="32"/>
<rect x="640" y="384" width="320" height="128" fill="#FF4858"/>
<rect y="480" width="640" height="32" fill="#0F0A29"/>
<rect y="448" width="1024" height="32" fill="white"/>
<path d="M47 109L39 125H55L47 141" stroke="#AF9CFF" stroke-width="8" stroke-linecap="square" stroke-linejoin="bevel"/>
<path d="M47 13L39 29H55L47 45" stroke="#AF9CFF" stroke-width="8" stroke-linecap="square" stroke-linejoin="bevel"/>
<path d="M39 157L31 173H47L39 189" stroke="#AF9CFF" stroke-width="8" stroke-linecap="square" stroke-linejoin="bevel"/>
<path d="M39 61L31 77H47L39 93" stroke="#AF9CFF" stroke-width="8" stroke-linecap="square" stroke-linejoin="bevel"/>
<path d="M39 253L31 269H47L39 285" stroke="#AF9CFF" stroke-width="8" stroke-linecap="square" stroke-linejoin="bevel"/>
<path d="M39 349L31 365H47L39 381" stroke="#AF9CFF" stroke-width="8" stroke-linecap="square" stroke-linejoin="bevel"/>
<path d="M47 205L39 221H55L47 237" stroke="#AF9CFF" stroke-width="8" stroke-linecap="square" stroke-linejoin="bevel"/>
<path d="M47 301L39 317H55L47 333" stroke="#AF9CFF" stroke-width="8" stroke-linecap="square" stroke-linejoin="bevel"/>
<path d="M47 397L39 413H55L47 429" stroke="#AF9CFF" stroke-width="8" stroke-linecap="square" stroke-linejoin="bevel"/>
<path d="M15 93L7 109H23L15 125" stroke="#AF9CFF" stroke-width="8" stroke-linecap="square" stroke-linejoin="bevel"/>
<path d="M15 -3L7 13H23L15 29" stroke="#AF9CFF" stroke-width="8" stroke-linecap="square" stroke-linejoin="bevel"/>
<path d="M79 93L71 109H87L79 125" stroke="#AF9CFF" stroke-width="8" stroke-linecap="square" stroke-linejoin="bevel"/>
<path d="M7 141L-1 157H15L7 173" stroke="#AF9CFF" stroke-width="8" stroke-linecap="square" stroke-linejoin="bevel"/>
<path d="M7 45L-1 61H15L7 77" stroke="#AF9CFF" stroke-width="8" stroke-linecap="square" stroke-linejoin="bevel"/>
<path d="M71 141L63 157H79L71 173" stroke="#AF9CFF" stroke-width="8" stroke-linecap="square" stroke-linejoin="bevel"/>
<path d="M71 45L63 61H79L71 77" stroke="#AF9CFF" stroke-width="8" stroke-linecap="square" stroke-linejoin="bevel"/>
<path d="M7 237L-1 253H15L7 269" stroke="#AF9CFF" stroke-width="8" stroke-linecap="square" stroke-linejoin="bevel"/>
<path d="M7 333L-1 349H15L7 365" stroke="#AF9CFF" stroke-width="8" stroke-linecap="square" stroke-linejoin="bevel"/>
<path d="M71 237L63 253H79L71 269" stroke="#AF9CFF" stroke-width="8" stroke-linecap="square" stroke-linejoin="bevel"/>
<path d="M71 333L63 349H79L71 365" stroke="#AF9CFF" stroke-width="8" stroke-linecap="square" stroke-linejoin="bevel"/>
<path d="M15 189L7 205H23L15 221" stroke="#AF9CFF" stroke-width="8" stroke-linecap="square" stroke-linejoin="bevel"/>
<path d="M79 189L71 205H87L79 221" stroke="#AF9CFF" stroke-width="8" stroke-linecap="square" stroke-linejoin="bevel"/>
<path d="M15 285L7 301H23L15 317" stroke="#AF9CFF" stroke-width="8" stroke-linecap="square" stroke-linejoin="bevel"/>
<path d="M15 381L7 397H23L15 413" stroke="#AF9CFF" stroke-width="8" stroke-linecap="square" stroke-linejoin="bevel"/>
<path d="M79 285L71 301H87L79 317" stroke="#AF9CFF" stroke-width="8" stroke-linecap="square" stroke-linejoin="bevel"/>
<path d="M79 381L71 397H87L79 413" stroke="#AF9CFF" stroke-width="8" stroke-linecap="square" stroke-linejoin="bevel"/>
<path d="M1007 109L999 125H1015L1007 141" stroke="#AF9CFF" stroke-width="8" stroke-linecap="square" stroke-linejoin="bevel"/>
<path d="M1007 13L999 29H1015L1007 45" stroke="#AF9CFF" stroke-width="8" stroke-linecap="square" stroke-linejoin="bevel"/>
<path d="M943 13L935 29H951L943 45" stroke="#AF9CFF" stroke-width="8" stroke-linecap="square" stroke-linejoin="bevel"/>
<path d="M815 13L807 29H823L815 45" stroke="#AF9CFF" stroke-width="8" stroke-linecap="square" stroke-linejoin="bevel"/>
<path d="M687 13L679 29H695L687 45" stroke="#AF9CFF" stroke-width="8" stroke-linecap="square" stroke-linejoin="bevel"/>
<path d="M879 13L871 29H887L879 45" stroke="#AF9CFF" stroke-width="8" stroke-linecap="square" stroke-linejoin="bevel"/>
<path d="M751 13L743 29H759L751 45" stroke="#AF9CFF" stroke-width="8" stroke-linecap="square" stroke-linejoin="bevel"/>
<path d="M623 13L615 29H631L623 45" stroke="#AF9CFF" stroke-width="8" stroke-linecap="square" stroke-linejoin="bevel"/>
<path d="M999 157L991 173H1007L999 189" stroke="#AF9CFF" stroke-width="8" stroke-linecap="square" stroke-linejoin="bevel"/>
<path d="M999 61L991 77H1007L999 93" stroke="#AF9CFF" stroke-width="8" stroke-linecap="square" stroke-linejoin="bevel"/>
<path d="M935 61L927 77H943L935 93" stroke="#AF9CFF" stroke-width="8" stroke-linecap="square" stroke-linejoin="bevel"/>
<path d="M807 61L799 77H815L807 93" stroke="#AF9CFF" stroke-width="8" stroke-linecap="square" stroke-linejoin="bevel"/>
<path d="M679 61L671 77H687L679 93" stroke="#AF9CFF" stroke-width="8" stroke-linecap="square" stroke-linejoin="bevel"/>
<path d="M871 61L863 77H879L871 93" stroke="#AF9CFF" stroke-width="8" stroke-linecap="square" stroke-linejoin="bevel"/>
<path d="M743 61L735 77H751L743 93" stroke="#AF9CFF" stroke-width="8" stroke-linecap="square" stroke-linejoin="bevel"/>
<path d="M615 61L607 77H623L615 93" stroke="#AF9CFF" stroke-width="8" stroke-linecap="square" stroke-linejoin="bevel"/>
<path d="M1007 205L999 221H1015L1007 237" stroke="#AF9CFF" stroke-width="8" stroke-linecap="square" stroke-linejoin="bevel"/>
<path d="M975 93L967 109H983L975 125" stroke="#AF9CFF" stroke-width="8" stroke-linecap="square" stroke-linejoin="bevel"/>
<path d="M975 -3L967 13H983L975 29" stroke="#AF9CFF" stroke-width="8" stroke-linecap="square" stroke-linejoin="bevel"/>
<path d="M911 -3L903 13H919L911 29" stroke="#AF9CFF" stroke-width="8" stroke-linecap="square" stroke-linejoin="bevel"/>
<path d="M783 -3L775 13H791L783 29" stroke="#AF9CFF" stroke-width="8" stroke-linecap="square" stroke-linejoin="bevel"/>
<path d="M655 -3L647 13H663L655 29" stroke="#AF9CFF" stroke-width="8" stroke-linecap="square" stroke-linejoin="bevel"/>
<path d="M847 -3L839 13H855L847 29" stroke="#AF9CFF" stroke-width="8" stroke-linecap="square" stroke-linejoin="bevel"/>
<path d="M719 -3L711 13H727L719 29" stroke="#AF9CFF" stroke-width="8" stroke-linecap="square" stroke-linejoin="bevel"/>
<path d="M591 -3L583 13H599L591 29" stroke="#AF9CFF" stroke-width="8" stroke-linecap="square" stroke-linejoin="bevel"/>
<path d="M967 141L959 157H975L967 173" stroke="#AF9CFF" stroke-width="8" stroke-linecap="square" stroke-linejoin="bevel"/>
<path d="M967 45L959 61H975L967 77" stroke="#AF9CFF" stroke-width="8" stroke-linecap="square" stroke-linejoin="bevel"/>
<path d="M903 45L895 61H911L903 77" stroke="#AF9CFF" stroke-width="8" stroke-linecap="square" stroke-linejoin="bevel"/>
<path d="M775 45L767 61H783L775 77" stroke="#AF9CFF" stroke-width="8" stroke-linecap="square" stroke-linejoin="bevel"/>
<path d="M647 45L639 61H655L647 77" stroke="#AF9CFF" stroke-width="8" stroke-linecap="square" stroke-linejoin="bevel"/>
<path d="M839 45L831 61H847L839 77" stroke="#AF9CFF" stroke-width="8" stroke-linecap="square" stroke-linejoin="bevel"/>
<path d="M711 45L703 61H719L711 77" stroke="#AF9CFF" stroke-width="8" stroke-linecap="square" stroke-linejoin="bevel"/>
<path d="M583 45L575 61H591L583 77" stroke="#AF9CFF" stroke-width="8" stroke-linecap="square" stroke-linejoin="bevel"/>
<path d="M1031 141L1023 157H1039L1031 173" stroke="#AF9CFF" stroke-width="8" stroke-linecap="square" stroke-linejoin="bevel"/>
<path d="M1031 45L1023 61H1039L1031 77" stroke="#AF9CFF" stroke-width="8" stroke-linecap="square" stroke-linejoin="bevel"/>
<path d="M1031 237L1023 253H1039L1031 269" stroke="#AF9CFF" stroke-width="8" stroke-linecap="square" stroke-linejoin="bevel"/>
<path d="M1031 333L1023 349H1039L1031 365" stroke="#AF9CFF" stroke-width="8" stroke-linecap="square" stroke-linejoin="bevel"/>
<path d="M975 189L967 205H983L975 221" stroke="#AF9CFF" stroke-width="8" stroke-linecap="square" stroke-linejoin="bevel"/>
<rect y="384" width="1024" height="32" fill="white"/>
<path d="M614.111 496H537.889L576 419.777L614.111 496Z" stroke="#0F0A29" stroke-width="32"/>
<path d="M998.111 496H921.889L960 419.777L998.111 496Z" stroke="#0F0A29" stroke-width="32"/>
<rect x="992" y="512" width="32" height="32" fill="#FF4858"/>
<rect x="864" y="512" width="32" height="32" fill="#FF4858"/>
<rect x="736" y="512" width="32" height="32" fill="#FF4858"/>
<rect x="608" y="512" width="32" height="32" fill="#FF4858"/>
<rect x="928" y="512" width="32" height="32" fill="#FF4858"/>
<rect x="800" y="512" width="32" height="32" fill="#FF4858"/>
<rect x="672" y="512" width="32" height="32" fill="#FF4858"/>
<rect x="544" y="512" width="32" height="32" fill="#FF4858"/>
<rect x="960" y="544" width="32" height="32" fill="#FF4858"/>
<rect x="832" y="544" width="32" height="32" fill="#FF4858"/>
<rect x="704" y="544" width="32" height="32" fill="#FF4858"/>
<rect x="576" y="544" width="32" height="32" fill="#FF4858"/>
<rect x="896" y="544" width="32" height="32" fill="#FF4858"/>
<rect x="768" y="544" width="32" height="32" fill="#FF4858"/>
<rect x="640" y="544" width="32" height="32" fill="#FF4858"/>
<rect x="512" y="544" width="32" height="32" fill="#FF4858"/>
<path d="M0 640H64H448L64 1024L0 960V640Z" fill="#FFC641"/>
<rect x="-1" y="832" width="728" height="64" fill="#FF4858"/>
<rect x="256" y="768" width="495" height="64" fill="white"/>
<rect x="64" y="704" width="800" height="64" fill="#FFC641"/>
<path d="M1024 512V1024H512L1024 512Z" fill="#FFC641"/>
<rect y="896" width="64" height="128" fill="#FF4858"/>
<path d="M576 960H1023V1024H512L576 960Z" fill="#FF4858"/>
<rect y="416" width="640" height="32" fill="#0F0A29"/>
<rect x="96" y="352" width="544" height="32" fill="#0F0A29"/>
<path d="M480 64H960L1024 128H480V64Z" fill="#0F0A29"/>
<rect x="96" y="320" width="544" height="32" fill="white"/>
<circle cx="224" cy="256" r="128" fill="#FF4858"/>
<rect x="224" width="256" height="256" fill="#FFC641"/>
<path d="M224 35L216 51H232L224 67" stroke="#0F0A29" stroke-width="8" stroke-linecap="square" stroke-linejoin="bevel"/>
<path d="M232 -13L224 3H240L232 19" stroke="#0F0A29" stroke-width="8" stroke-linecap="square" stroke-linejoin="bevel"/>
<path d="M232 83L224 99H240L232 115" stroke="#0F0A29" stroke-width="8" stroke-linecap="square" stroke-linejoin="bevel"/>
<path d="M256 19L248 35H264L256 51" stroke="#0F0A29" stroke-width="8" stroke-linecap="square" stroke-linejoin="bevel"/>
<path d="M264 -29L256 -13H272L264 3" stroke="#0F0A29" stroke-width="8" stroke-linecap="square" stroke-linejoin="bevel"/>
<path d="M264 67L256 83H272L264 99" stroke="#0F0A29" stroke-width="8" stroke-linecap="square" stroke-linejoin="bevel"/>
<path d="M288 35L280 51H296L288 67" stroke="#0F0A29" stroke-width="8" stroke-linecap="square" stroke-linejoin="bevel"/>
<path d="M296 -13L288 3H304L296 19" stroke="#0F0A29" stroke-width="8" stroke-linecap="square" stroke-linejoin="bevel"/>
<path d="M296 83L288 99H304L296 115" stroke="#0F0A29" stroke-width="8" stroke-linecap="square" stroke-linejoin="bevel"/>
<path d="M320 19L312 35H328L320 51" stroke="#0F0A29" stroke-width="8" stroke-linecap="square" stroke-linejoin="bevel"/>
<path d="M328 -29L320 -13H336L328 3" stroke="#0F0A29" stroke-width="8" stroke-linecap="square" stroke-linejoin="bevel"/>
<path d="M328 67L320 83H336L328 99" stroke="#0F0A29" stroke-width="8" stroke-linecap="square" stroke-linejoin="bevel"/>
<path d="M480 35L472 51H488L480 67" stroke="#0F0A29" stroke-width="8" stroke-linecap="square" stroke-linejoin="bevel"/>
<path d="M360 -13L352 3H368L360 19" stroke="#0F0A29" stroke-width="8" stroke-linecap="square" stroke-linejoin="bevel"/>
<path d="M424 -13L416 3H432L424 19" stroke="#0F0A29" stroke-width="8" stroke-linecap="square" stroke-linejoin="bevel"/>
<path d="M488 -13L480 3H496L488 19" stroke="#0F0A29" stroke-width="8" stroke-linecap="square" stroke-linejoin="bevel"/>
<path d="M360 83L352 99H368L360 115" stroke="#0F0A29" stroke-width="8" stroke-linecap="square" stroke-linejoin="bevel"/>
<path d="M424 83L416 99H432L424 115" stroke="#0F0A29" stroke-width="8" stroke-linecap="square" stroke-linejoin="bevel"/>
<path d="M488 83L480 99H496L488 115" stroke="#0F0A29" stroke-width="8" stroke-linecap="square" stroke-linejoin="bevel"/>
<path d="M392 -29L384 -13H400L392 3" stroke="#0F0A29" stroke-width="8" stroke-linecap="square" stroke-linejoin="bevel"/>
<path d="M456 -29L448 -13H464L456 3" stroke="#0F0A29" stroke-width="8" stroke-linecap="square" stroke-linejoin="bevel"/>
<path d="M392 67L384 83H400L392 99" stroke="#0F0A29" stroke-width="8" stroke-linecap="square" stroke-linejoin="bevel"/>
<path d="M456 67L448 83H464L456 99" stroke="#0F0A29" stroke-width="8" stroke-linecap="square" stroke-linejoin="bevel"/>
<path d="M384 19L376 35H392L384 51" stroke="#0F0A29" stroke-width="8" stroke-linecap="square" stroke-linejoin="bevel"/>
<path d="M352 35L344 51H360L352 67" stroke="#0F0A29" stroke-width="8" stroke-linecap="square" stroke-linejoin="bevel"/>
<path d="M416 35L408 51H424L416 67" stroke="#0F0A29" stroke-width="8" stroke-linecap="square" stroke-linejoin="bevel"/>
<path d="M448 19L440 35H456L448 51" stroke="#0F0A29" stroke-width="8" stroke-linecap="square" stroke-linejoin="bevel"/>
<rect x="480" y="128" width="544" height="128" fill="#FF4858"/>
<path d="M256 128L288 256H224L256 128Z" fill="#0F0A29"/>
<path d="M512 128L544 256H480L512 128Z" fill="white"/>
<path d="M768 128L800 256H736L768 128Z" fill="white"/>
<path d="M384 128L416 256L384 264.5L352 256L384 128Z" fill="#0F0A29"/>
<path d="M640 128L672 256H608L640 128Z" fill="white"/>
<path d="M896 128L928 256H864L896 128Z" fill="white"/>
<path d="M320 128L352 256H288L320 128Z" fill="#0F0A29"/>
<path d="M576 128L608 256H544L576 128Z" fill="white"/>
<path d="M832 128L864 256H800L832 128Z" fill="white"/>
<path d="M448 128L480 256L448 265.5L416 256L448 128Z" fill="#0F0A29"/>
<path d="M704 128L736 256H672L704 128Z" fill="white"/>
<path d="M960 128L992 256H928L960 128Z" fill="white"/>
<path d="M1024 128L1056 256H992L1024 128Z" fill="white"/>
<path d="M677.49 858.51C653.486 834.505 640 801.948 640 768C640 734.052 653.486 701.495 677.49 677.49C701.495 653.486 734.052 640 768 640C801.948 640 834.505 653.486 858.51 677.49L785.5 785L677.49 858.51Z" fill="#FFC641"/>
<mask id="mask0_43_20424" style="mask-type:alpha" maskUnits="userSpaceOnUse" x="640" y="640" width="219" height="219">
<path d="M677.49 858.51C653.486 834.505 640 801.948 640 768C640 734.052 653.486 701.495 677.49 677.49C701.495 653.486 734.052 640 768 640C801.948 640 834.505 653.486 858.51 677.49L785.5 785L677.49 858.51Z" fill="#FFC641"/>
</mask>
<g mask="url(#mask0_43_20424)">
<path d="M647 755L639 771H655L647 787" stroke="#0F0A29" stroke-width="8" stroke-linecap="square" stroke-linejoin="bevel"/>
<path d="M655 707L647 723H663L655 739" stroke="#0F0A29" stroke-width="8" stroke-linecap="square" stroke-linejoin="bevel"/>
<path d="M655 803L647 819H663L655 835" stroke="#0F0A29" stroke-width="8" stroke-linecap="square" stroke-linejoin="bevel"/>
<path d="M679 675L671 691H687L679 707" stroke="#0F0A29" stroke-width="8" stroke-linecap="square" stroke-linejoin="bevel"/>
<path d="M679 771L671 787H687L679 803" stroke="#0F0A29" stroke-width="8" stroke-linecap="square" stroke-linejoin="bevel"/>
<path d="M687 723L679 739H695L687 755" stroke="#0F0A29" stroke-width="8" stroke-linecap="square" stroke-linejoin="bevel"/>
<path d="M687 819L679 835H695L687 851" stroke="#0F0A29" stroke-width="8" stroke-linecap="square" stroke-linejoin="bevel"/>
<path d="M711 659L703 675H719L711 691" stroke="#0F0A29" stroke-width="8" stroke-linecap="square" stroke-linejoin="bevel"/>
<path d="M711 755L703 771H719L711 787" stroke="#0F0A29" stroke-width="8" stroke-linecap="square" stroke-linejoin="bevel"/>
<path d="M719 707L711 723H727L719 739" stroke="#0F0A29" stroke-width="8" stroke-linecap="square" stroke-linejoin="bevel"/>
<path d="M719 803L711 819H727L719 835" stroke="#0F0A29" stroke-width="8" stroke-linecap="square" stroke-linejoin="bevel"/>
<path d="M751 627L743 643H759L751 659" stroke="#0F0A29" stroke-width="8" stroke-linecap="square" stroke-linejoin="bevel"/>
<path d="M743 675L735 691H751L743 707" stroke="#0F0A29" stroke-width="8" stroke-linecap="square" stroke-linejoin="bevel"/>
<path d="M743 771L735 787H751L743 803" stroke="#0F0A29" stroke-width="8" stroke-linecap="square" stroke-linejoin="bevel"/>
<path d="M751 723L743 739H759L751 755" stroke="#0F0A29" stroke-width="8" stroke-linecap="square" stroke-linejoin="bevel"/>
<path d="M783 611L775 627H791L783 643" stroke="#0F0A29" stroke-width="8" stroke-linecap="square" stroke-linejoin="bevel"/>
<path d="M775 659L767 675H783L775 691" stroke="#0F0A29" stroke-width="8" stroke-linecap="square" stroke-linejoin="bevel"/>
<path d="M775 755L767 771H783L775 787" stroke="#0F0A29" stroke-width="8" stroke-linecap="square" stroke-linejoin="bevel"/>
<path d="M783 707L775 723H791L783 739" stroke="#0F0A29" stroke-width="8" stroke-linecap="square" stroke-linejoin="bevel"/>
<path d="M815 627L807 643H823L815 659" stroke="#0F0A29" stroke-width="8" stroke-linecap="square" stroke-linejoin="bevel"/>
<path d="M807 675L799 691H815L807 707" stroke="#0F0A29" stroke-width="8" stroke-linecap="square" stroke-linejoin="bevel"/>
<path d="M815 723L807 739H823L815 755" stroke="#0F0A29" stroke-width="8" stroke-linecap="square" stroke-linejoin="bevel"/>
<path d="M839 659L831 675H847L839 691" stroke="#0F0A29" stroke-width="8" stroke-linecap="square" stroke-linejoin="bevel"/>
</g>
<path d="M858.51 677.49C882.514 701.495 896 734.052 896 768C896 801.948 882.514 834.505 858.51 858.51C834.505 882.514 801.948 896 768 896C734.052 896 701.495 882.514 677.49 858.51L858.51 677.49Z" fill="#FF4858"/>
<path d="M1024 512V640H896L1024 512Z" fill="white"/>
<rect y="640" width="32" height="32" fill="white"/>
<rect y="704" width="32" height="32" fill="white"/>
<rect y="768" width="32" height="32" fill="white"/>
<rect y="832" width="32" height="32" fill="white"/>
<rect y="896" width="32" height="32" fill="white"/>
<rect y="960" width="32" height="32" fill="white"/>
<rect x="32" y="672" width="32" height="32" fill="white"/>
<rect x="32" y="736" width="32" height="32" fill="white"/>
<rect x="32" y="800" width="32" height="32" fill="white"/>
<rect x="32" y="864" width="32" height="32" fill="white"/>
<rect x="32" y="928" width="32" height="32" fill="white"/>
<rect x="32" y="992" width="32" height="32" fill="white"/>
<rect x="959" y="640" width="32" height="32" fill="white"/>
<rect x="959" y="704" width="32" height="32" fill="white"/>
<rect x="959" y="768" width="32" height="32" fill="white"/>
<rect x="959" y="832" width="32" height="32" fill="white"/>
<rect x="959" y="896" width="32" height="32" fill="white"/>
<rect x="959" y="960" width="32" height="32" fill="white"/>
<rect x="991" y="672" width="32" height="32" fill="white"/>
<rect x="991" y="736" width="32" height="32" fill="white"/>
<rect x="991" y="800" width="32" height="32" fill="white"/>
<rect x="991" y="864" width="32" height="32" fill="white"/>
<rect x="991" y="928" width="32" height="32" fill="white"/>
<rect x="991" y="992" width="32" height="32" fill="white"/>
<rect x="480" y="128" width="32" height="32" transform="rotate(-90 480 128)" fill="#FF4858"/>
<rect x="544" y="128" width="32" height="32" transform="rotate(-90 544 128)" fill="#FF4858"/>
<rect x="608" y="128" width="32" height="32" transform="rotate(-90 608 128)" fill="#FF4858"/>
<rect x="672" y="128" width="32" height="32" transform="rotate(-90 672 128)" fill="#FF4858"/>
<rect x="736" y="128" width="32" height="32" transform="rotate(-90 736 128)" fill="#FF4858"/>
<rect x="800" y="128" width="32" height="32" transform="rotate(-90 800 128)" fill="#FF4858"/>
<rect x="864" y="128" width="32" height="32" transform="rotate(-90 864 128)" fill="#FFC641"/>
<rect x="928" y="128" width="32" height="32" transform="rotate(-90 928 128)" fill="#FFC641"/>
<rect x="992" y="128" width="32" height="32" transform="rotate(-90 992 128)" fill="#FFC641"/>
<rect x="512" y="96" width="32" height="32" transform="rotate(-90 512 96)" fill="#FF4858"/>
<rect x="576" y="96" width="32" height="32" transform="rotate(-90 576 96)" fill="#FF4858"/>
<rect x="640" y="96" width="32" height="32" transform="rotate(-90 640 96)" fill="#FF4858"/>
<rect x="704" y="96" width="32" height="32" transform="rotate(-90 704 96)" fill="#FF4858"/>
<rect x="768" y="96" width="32" height="32" transform="rotate(-90 768 96)" fill="#FF4858"/>
<rect x="832" y="96" width="32" height="32" transform="rotate(-90 832 96)" fill="#FFC641"/>
<rect x="896" y="96" width="32" height="32" transform="rotate(-90 896 96)" fill="#FFC641"/>
<rect x="960" y="96" width="32" height="32" transform="rotate(-90 960 96)" fill="#FFC641"/>
<path d="M128 1116.22L81.8885 1024L128 931.777L174.111 1024L128 1116.22Z" stroke="#AF9CFF" stroke-width="32"/>
<path d="M128 92.2229L81.8885 0L128 -92.2229L174.111 0L128 92.2229Z" stroke="#AF9CFF" stroke-width="32"/>
<path d="M256 1116.22L209.889 1024L256 931.777L302.111 1024L256 1116.22Z" stroke="#AF9CFF" stroke-width="32"/>
<path d="M384 1116.22L337.889 1024L384 931.777L430.111 1024L384 1116.22Z" stroke="#AF9CFF" stroke-width="32"/>
<path d="M512 1116.22L465.889 1024L512 931.777L558.111 1024L512 1116.22Z" stroke="#AF9CFF" stroke-width="32"/>
<path d="M960 988.223L913.889 896L960 803.777L1006.11 896L960 988.223Z" stroke="#0F0A29" stroke-width="32"/>
<path d="M128 796.223L81.8885 704L128 611.777L174.111 704L128 796.223Z" stroke="white" stroke-width="32"/>
<path d="M64 604.223L17.8885 512L64 419.777L110.111 512L64 604.223Z" stroke="#0F0A29" stroke-width="32"/>
<path d="M192 604.223L145.889 512L192 419.777L238.111 512L192 604.223Z" stroke="#0F0A29" stroke-width="32"/>
<path d="M358.111 496H281.889L320 419.777L358.111 496Z" stroke="#0F0A29" stroke-width="32"/>
<path d="M486.111 496H409.889L448 419.777L486.111 496Z" stroke="#0F0A29" stroke-width="32"/>
</g>
<defs>
<clipPath id="clip0_43_20424">
<rect width="1024" height="1024" fill="white"/>
</clipPath>
</defs>
</svg>
