<svg width="64" height="64" viewBox="0 0 64 64" fill="none" xmlns="http://www.w3.org/2000/svg">
<rect width="64" height="64" rx="32" fill="#5865F2"/>
<path d="M45.8838 18.5955C43.2549 17.3661 40.48 16.4936 37.6298 16.0004C37.2414 16.7137 36.8896 17.4472 36.5758 18.1979C35.0597 17.964 33.5286 17.8464 31.9952 17.8458C30.4645 17.8458 28.9263 17.9648 27.4143 18.1949C27.1055 17.4495 26.7469 16.7105 26.3577 16C23.5072 16.498 20.7321 17.3722 18.1017 18.6007C12.8777 26.5031 11.462 34.208 12.1699 41.8036C15.2288 44.1139 18.6525 45.871 22.292 46.9986C23.1082 45.872 23.8393 44.6726 24.4601 43.4244C23.2757 42.9732 22.1328 42.4155 21.0447 41.7578C21.331 41.5455 21.611 41.3268 21.8816 41.1143C25.0454 42.6338 28.5023 43.4263 31.9999 43.4263C35.4977 43.4263 38.9545 42.6338 42.1185 41.1141C42.3922 41.3425 42.6723 41.5614 42.9554 41.7575C41.8651 42.4164 40.7201 42.9756 39.5337 43.4286C40.1566 44.6795 40.882 45.8742 41.702 47C45.3448 45.876 48.7712 44.1189 51.8309 41.8058L51.83 41.8067C52.6606 32.9984 50.4111 25.3642 45.8838 18.5955ZM25.3553 37.1324C23.3827 37.1324 21.753 35.3018 21.753 33.0498C21.753 30.7979 23.326 28.9513 25.349 28.9513C27.372 28.9513 28.989 30.7979 28.9545 33.0498C28.9198 35.3018 27.3657 37.1324 25.3553 37.1324ZM38.6446 37.1324C36.6688 37.1324 35.0454 35.3018 35.0454 33.0498C35.0454 30.7979 36.6184 28.9513 38.6446 28.9513C40.6707 28.9513 42.2752 30.7979 42.2406 33.0498C42.206 35.3018 40.6549 37.1324 38.6446 37.1324Z" fill="white"/>
</svg>
