<svg width="64" height="64" viewBox="0 0 64 64" fill="none" xmlns="http://www.w3.org/2000/svg">
<rect width="64" height="64" rx="32" fill="white"/>
<path d="M28.4228 26.5648V24.7603C27.7866 24.6611 27.144 24.6068 26.5 24.5977C20.2646 24.5846 14.7444 28.563 12.8719 34.4188C10.9994 40.2746 13.2097 46.6491 18.3277 50.1553C16.4509 48.1777 15.1956 45.7074 14.7132 43.0428C14.2309 40.3782 14.5422 37.6331 15.6095 35.1388C16.6769 32.6446 18.4546 30.5078 20.7282 28.9864C23.0018 27.465 25.674 26.624 28.4223 26.565L28.4228 26.5648Z" fill="#25F4EE"/>
<path d="M28.7685 47.005C32.2547 47.0003 35.1203 44.2962 35.273 40.867V10.266H40.9509C40.8351 9.62653 40.7798 8.97788 40.7858 8.32837L33.0195 8.32837V38.8999C32.8903 42.3465 30.0179 45.0766 26.5151 45.0822C25.4683 45.0734 24.4386 44.82 23.5107 44.3427C24.1121 45.163 24.9018 45.8317 25.8155 46.2944C26.7292 46.757 27.7411 47.0005 28.7685 47.005ZM51.5564 20.6486V18.9477C49.4667 18.9485 47.4233 18.3414 45.6829 17.2026C47.2086 18.9489 49.2704 20.1586 51.5564 20.6486Z" fill="#25F4EE"/>
<path d="M45.6828 17.2025C43.9682 15.2803 43.0231 12.8092 43.024 10.251H40.9508C41.2185 11.6654 41.7762 13.0113 42.5898 14.2065C43.4034 15.4017 44.4558 16.4211 45.6828 17.2025ZM26.4999 32.2442C25.0459 32.2515 23.6361 32.7372 22.4947 33.624C21.3532 34.5108 20.5456 35.7478 20.2002 37.1385C19.8549 38.5291 19.9916 39.9935 20.5887 41.2989C21.1857 42.6042 22.2089 43.6756 23.4954 44.3427C22.792 43.3864 22.3708 42.2573 22.2783 41.0801C22.1857 39.9029 22.4255 38.7235 22.9712 37.6721C23.5168 36.6207 24.347 35.7382 25.3701 35.1222C26.3931 34.5063 27.5692 34.1807 28.7684 34.1816C29.4203 34.19 30.0677 34.2899 30.691 34.4783V26.6978C30.0545 26.6039 29.412 26.5545 28.7684 26.55H28.4227V32.466C27.7961 32.3005 27.1484 32.2258 26.4999 32.2442Z" fill="#FE2C55"/>
<path d="M51.5567 20.6487V26.5649C47.6881 26.5575 43.92 25.3518 40.7861 23.1187V38.6633C40.7695 46.4199 34.3784 52.6994 26.5004 52.6994C23.5745 52.7045 20.7192 51.8157 18.3281 50.1554C20.2779 52.2202 22.814 53.659 25.6061 54.2845C28.3982 54.91 31.3169 54.693 33.982 53.662C36.6471 52.631 38.9351 50.8336 40.548 48.504C42.1608 46.1745 43.0238 43.4207 43.0244 40.6013V25.1007C46.1689 27.3191 49.9416 28.5091 53.81 28.5025V20.8848C53.0526 20.8826 52.2975 20.8034 51.5567 20.6487Z" fill="#FE2C55"/>
<path d="M40.7866 38.6632V23.1186C43.93 25.339 47.7034 26.5291 51.5722 26.5203V20.6043C49.2866 20.1291 47.22 18.9351 45.6838 17.2025C44.4568 16.4211 43.4044 15.4017 42.5908 14.2065C41.7772 13.0113 41.2195 11.6654 40.9517 10.251H35.2738V40.8674C35.2185 42.2001 34.743 43.4827 33.9132 44.537C33.0835 45.5913 31.9408 46.365 30.644 46.7505C29.3471 47.1359 27.9605 47.1141 26.6768 46.6879C25.3932 46.2618 24.2762 45.4525 23.4812 44.3726C22.1944 43.7056 21.1711 42.6342 20.5739 41.3288C19.9766 40.0234 19.8398 38.5588 20.1852 37.168C20.5306 35.7773 21.3383 34.5401 22.4799 33.6532C23.6216 32.7664 25.0316 32.2808 26.4857 32.2737C27.1379 32.2795 27.7857 32.3792 28.4085 32.5696V26.6534C25.6454 26.6995 22.9556 27.5362 20.6671 29.0615C18.3787 30.5867 16.5903 32.7346 15.5202 35.2432C14.4501 37.7518 14.1444 40.5128 14.6405 43.1895C15.1365 45.8662 16.4129 48.343 18.3139 50.3179C20.7284 51.9234 23.5878 52.7551 26.5009 52.6992C34.3789 52.6992 40.77 46.4197 40.7866 38.6632Z" fill="black"/>
</svg>
