<svg width="64" height="64" viewBox="0 0 64 64" fill="none" xmlns="http://www.w3.org/2000/svg">
<rect width="64" height="64" rx="32" fill="#26A4E3"/>
<path fill-rule="evenodd" clip-rule="evenodd" d="M13.4649 30.0762C23.1266 26.1372 29.5585 23.5198 32.7883 22.25C41.9807 18.6479 43.913 18.0259 45.1552 18C45.4313 18 46.0386 18.0518 46.4526 18.3628C46.7839 18.6219 46.8667 18.9588 46.9219 19.218C46.9771 19.4771 47.0323 20.0213 46.9771 20.436C46.4802 25.3597 44.3271 37.3063 43.2229 42.8002C42.7536 45.1325 41.8426 45.9099 40.9593 45.9877C39.0269 46.1432 37.5639 44.7956 35.7144 43.6554C32.7882 41.8673 31.1596 40.753 28.3163 38.9908C25.0313 36.9694 27.1569 35.8551 29.034 34.0411C29.5309 33.5746 38.0056 26.3186 38.1712 25.6707C38.1988 25.593 38.1988 25.282 38.0056 25.1265C37.8123 24.971 37.5363 25.0228 37.3154 25.0747C37.0118 25.1265 32.3742 28.0289 23.3474 33.756C22.0224 34.6112 20.8354 35.0258 19.7588 34.9999C18.5718 34.974 16.3082 34.378 14.5967 33.8597C12.5263 33.2377 10.87 32.9009 11.008 31.8124C11.0909 31.2423 11.919 30.6722 13.4649 30.0762Z" fill="white"/>
</svg>
